<svg width="36" height="40" viewBox="0 0 36 40" xmlns="http://www.w3.org/2000/svg"><title>logo-with-name</title><g fill="none" fill-rule="evenodd"><path d="M13 13h10l7 13H6l7-13z" fill="#37A8FF"/><path d="M18 6l-5 7h10l-5-7z" fill="#FFF"/><path d="M6 26h24L18 6 6 26z" stroke="#333" stroke-width="2"/><path d="M5.44 32.533c0-.294.033-.578.098-.853.064-.275.166-.52.307-.736.14-.215.325-.387.55-.515.228-.13.503-.193.827-.193.325 0 .6.064.827.192.225.127.41.3.55.514.14.216.243.46.307.736.064.275.096.56.096.853 0 .28-.032.554-.096.82-.064.265-.167.504-.308.717-.14.212-.325.382-.55.51-.228.128-.503.192-.828.192-.324 0-.6-.064-.826-.192-.226-.128-.41-.298-.55-.51-.142-.213-.244-.452-.308-.717-.065-.266-.097-.54-.097-.82zm-1.44 0c0 .487.073.942.22 1.363.147.422.358.79.634 1.1.275.314.613.56 1.014.737.4.178.852.267 1.354.267.508 0 .96-.09 1.36-.267.397-.178.733-.423 1.01-.736.274-.312.485-.68.632-1.1.147-.422.22-.877.22-1.364 0-.5-.073-.964-.22-1.392-.147-.427-.358-.8-.633-1.12-.275-.317-.61-.567-1.01-.748-.397-.18-.85-.272-1.358-.272-.502 0-.953.09-1.354.272-.4.18-.74.43-1.014.75-.276.318-.487.69-.634 1.12-.147.427-.22.89-.22 1.39zm9.42 2.08v-4.217h1.027c.355 0 .654.052.895.155.242.104.436.252.583.446.147.194.253.426.317.698.064.272.096.576.096.914 0 .368-.046.68-.137.937-.09.256-.214.464-.367.623-.153.16-.327.273-.523.342-.196.07-.398.103-.606.103H13.42zm-1.442-5.454v6.69h2.827c.502 0 .938-.086 1.308-.258.37-.17.68-.407.928-.707.25-.3.434-.656.556-1.068.122-.413.184-.863.184-1.35 0-.556-.075-1.04-.225-1.452-.15-.413-.358-.756-.625-1.03-.266-.276-.58-.482-.945-.62-.364-.137-.757-.206-1.18-.206h-2.827zm7.353 0v6.69h4.977v-1.237h-3.535v-1.64h3.177V31.83H20.77v-1.434h3.46V29.16h-4.9zm6.5 0v6.69h1.35v-4.48h.02l2.725 4.48h1.442v-6.69h-1.35v4.488H30l-2.737-4.49H25.83z" fill="#222"/></g></svg>